<svg width="22" height="22" viewBox="0 0 22 22" fill="none" xmlns="http://www.w3.org/2000/svg">
<path fill-rule="evenodd" clip-rule="evenodd" d="M20.5222 8.18225C19.848 3.97577 16.3233 0.846388 12.1209 0.72319C11.9211 0.715255 11.7264 0.788179 11.5797 0.925889C11.4329 1.0636 11.3463 1.2548 11.3387 1.45735V1.52588L11.8119 8.70106C11.8429 9.18412 12.2526 9.55125 12.7293 9.52334L19.827 9.0437C20.0269 9.02862 20.2128 8.93345 20.3433 8.77913C20.4738 8.62481 20.5383 8.42405 20.5222 8.22141V8.18225Z" stroke="#9DA8C3" stroke-width="1.42953" stroke-linecap="round" stroke-linejoin="round"/>
<path d="M7.20577 4.99108C7.65726 4.88522 8.11929 5.11939 8.30663 5.54905C8.35571 5.6501 8.38525 5.75975 8.39358 5.87208C8.49012 7.26208 8.69289 10.3064 8.80883 11.9509C8.82856 12.2471 8.96402 12.5232 9.18515 12.7179C9.40617 12.9126 9.69471 13.0101 9.98694 12.9886L15.9451 12.6165C16.2111 12.6004 16.4719 12.6963 16.6657 12.8816C16.8595 13.067 16.9692 13.3253 16.9687 13.5955C16.7272 17.2425 14.1423 20.2916 10.6215 21.0819C7.10081 21.8722 3.48762 20.2146 1.74973 17.0118C1.23094 16.0899 0.902393 15.0709 0.784054 14.0164C0.733467 13.6927 0.714066 13.3649 0.726114 13.0374C0.736369 9.1426 3.43482 5.78669 7.19611 4.99108" stroke="#9DA8C3" stroke-width="1.42953" stroke-linecap="round" stroke-linejoin="round"/>
</svg>
