<svg width="22" height="22" viewBox="0 0 22 22" fill="none" xmlns="http://www.w3.org/2000/svg">
<path fill-rule="evenodd" clip-rule="evenodd" d="M20.5221 8.18226C19.8479 3.97581 16.3232 0.846445 12.1208 0.723248C11.921 0.715313 11.7264 0.788237 11.5796 0.925946C11.4329 1.06365 11.3462 1.25486 11.3387 1.4574V1.52593L11.8118 8.70107C11.8428 9.18413 12.2525 9.55126 12.7292 9.52335L19.8269 9.04371C20.0268 9.02864 20.2127 8.93346 20.3432 8.77914C20.4737 8.62482 20.5382 8.42406 20.5221 8.22143V8.18226Z" stroke="#9DA8C3" stroke-width="1.42953" stroke-linecap="round" stroke-linejoin="round"/>
<path d="M7.20573 4.99118C7.65722 4.88532 8.11924 5.11949 8.30659 5.54914C8.35566 5.65019 8.3852 5.75985 8.39354 5.87217C8.49007 7.26217 8.69284 10.3064 8.80878 11.951C8.82851 12.2472 8.96397 12.5232 9.1851 12.718C9.40612 12.9127 9.69466 13.0101 9.98689 12.9886L15.945 12.6166C16.211 12.6004 16.4718 12.6964 16.6656 12.8817C16.8594 13.067 16.9691 13.3254 16.9686 13.5955C16.7271 17.2426 14.1422 20.2916 10.6215 21.0819C7.10077 21.8722 3.4876 20.2146 1.74972 17.0118C1.23093 16.0899 0.902388 15.0709 0.78405 14.0164C0.733463 13.6927 0.714062 13.365 0.72611 13.0375C0.736365 9.14268 3.4348 5.78678 7.19607 4.99118" stroke="#9DA8C3" stroke-width="1.42953" stroke-linecap="round" stroke-linejoin="round"/>
</svg>
