<svg width="42" height="42" viewBox="0 0 42 42" fill="none" xmlns="http://www.w3.org/2000/svg">
<path d="M21 42C32.598 42 42 32.598 42 21C42 9.40202 32.598 0 21 0C9.40202 0 0 9.40202 0 21C0 32.598 9.40202 42 21 42Z" fill="#FFBF0B"/>
<path d="M29.2031 19.0312C31.9214 19.0312 34.125 16.8277 34.125 14.1094C34.125 11.3911 31.9214 9.1875 29.2031 9.1875C26.4848 9.1875 24.2812 11.3911 24.2812 14.1094C24.2812 16.8277 26.4848 19.0312 29.2031 19.0312Z" fill="white"/>
<path d="M34.125 21C34.125 28.2188 28.2188 34.125 21 34.125C13.7812 34.125 7.875 28.2188 7.875 21H34.125Z" fill="#1A1A54"/>
<path d="M21.0002 26.9062C17.0627 26.9062 13.5845 28.2188 11.5502 30.1875C13.9783 32.6156 17.3252 34.125 21.0002 34.125C24.6752 34.125 28.022 32.6156 30.4502 30.1219C28.4158 28.1531 24.9377 26.9062 21.0002 26.9062Z" fill="#DC2863"/>
<path d="M27.825 24.2812H14.175C13.5188 24.2812 12.9938 23.8219 12.8625 23.2313L12.4688 21H29.5312L29.0719 23.2313C28.9406 23.8219 28.4156 24.2812 27.825 24.2812Z" fill="white"/>
<path d="M29.2031 17.0625C30.8341 17.0625 32.1562 15.7403 32.1562 14.1094C32.1562 12.4784 30.8341 11.1562 29.2031 11.1562C27.5722 11.1562 26.25 12.4784 26.25 14.1094C26.25 15.7403 27.5722 17.0625 29.2031 17.0625Z" fill="#1A1A54"/>
<path d="M12.7969 19.0312C15.5152 19.0312 17.7188 16.8277 17.7188 14.1094C17.7188 11.3911 15.5152 9.1875 12.7969 9.1875C10.0786 9.1875 7.875 11.3911 7.875 14.1094C7.875 16.8277 10.0786 19.0312 12.7969 19.0312Z" fill="white"/>
<path d="M12.7969 17.0625C14.4278 17.0625 15.75 15.7403 15.75 14.1094C15.75 12.4784 14.4278 11.1562 12.7969 11.1562C11.1659 11.1562 9.84375 12.4784 9.84375 14.1094C9.84375 15.7403 11.1659 17.0625 12.7969 17.0625Z" fill="#1A1A54"/>
<path d="M29.2033 21C35.1473 21 39.9658 19.8247 39.9658 18.375C39.9658 16.9253 35.1473 15.75 29.2033 15.75C23.2593 15.75 18.4408 16.9253 18.4408 18.375C18.4408 19.8247 23.2593 21 29.2033 21Z" fill="#FFBF0B"/>
<path d="M12.797 21C18.741 21 23.5595 19.8247 23.5595 18.375C23.5595 16.9253 18.741 15.75 12.797 15.75C6.85308 15.75 2.03454 16.9253 2.03454 18.375C2.03454 19.8247 6.85308 21 12.797 21Z" fill="#FFBF0B"/>
</svg>
