<svg width="74" height="74" viewBox="0 0 74 74" fill="none" xmlns="http://www.w3.org/2000/svg">
<g opacity="0.34" filter="url(#filter0_f_2_749)">
<path d="M37 56C47.4934 56 56 47.4934 56 37C56 26.5066 47.4934 18 37 18C26.5066 18 18 26.5066 18 37C18 47.4934 26.5066 56 37 56Z" fill="#FFBF0B"/>
<path d="M44.4219 35.2188C46.8813 35.2188 48.875 33.225 48.875 30.7656C48.875 28.3062 46.8813 26.3125 44.4219 26.3125C41.9625 26.3125 39.9688 28.3062 39.9688 30.7656C39.9688 33.225 41.9625 35.2188 44.4219 35.2188Z" fill="white"/>
<path d="M48.875 37C48.875 43.5312 43.5312 48.875 37 48.875C30.4688 48.875 25.125 43.5312 25.125 37H48.875Z" fill="#1A1A54"/>
<path d="M37.0002 42.3438C33.4377 42.3438 30.2908 43.5312 28.4502 45.3125C30.647 47.5094 33.6752 48.875 37.0002 48.875C40.3252 48.875 43.3533 47.5094 45.5502 45.2531C43.7095 43.4719 40.5627 42.3438 37.0002 42.3438Z" fill="#DC2863"/>
<path d="M43.175 39.9688H30.825C30.2313 39.9688 29.7563 39.5531 29.6375 39.0188L29.2812 37H44.7188L44.3031 39.0188C44.1844 39.5531 43.7094 39.9688 43.175 39.9688Z" fill="white"/>
<path d="M44.4219 33.4375C45.8975 33.4375 47.0938 32.2413 47.0938 30.7656C47.0938 29.29 45.8975 28.0938 44.4219 28.0938C42.9462 28.0938 41.75 29.29 41.75 30.7656C41.75 32.2413 42.9462 33.4375 44.4219 33.4375Z" fill="#1A1A54"/>
<path d="M29.5781 35.2188C32.0375 35.2188 34.0312 33.225 34.0312 30.7656C34.0312 28.3062 32.0375 26.3125 29.5781 26.3125C27.1187 26.3125 25.125 28.3062 25.125 30.7656C25.125 33.225 27.1187 35.2188 29.5781 35.2188Z" fill="white"/>
<path d="M29.5781 33.4375C31.0538 33.4375 32.25 32.2413 32.25 30.7656C32.25 29.29 31.0538 28.0938 29.5781 28.0938C28.1025 28.0938 26.9062 29.29 26.9062 30.7656C26.9062 32.2413 28.1025 33.4375 29.5781 33.4375Z" fill="#1A1A54"/>
<path d="M44.422 37C49.7999 37 54.1595 35.9367 54.1595 34.625C54.1595 33.3133 49.7999 32.25 44.422 32.25C39.0442 32.25 34.6845 33.3133 34.6845 34.625C34.6845 35.9367 39.0442 37 44.422 37Z" fill="#FFBF0B"/>
<path d="M29.5783 37C34.9562 37 39.3158 35.9367 39.3158 34.625C39.3158 33.3133 34.9562 32.25 29.5783 32.25C24.2004 32.25 19.8408 33.3133 19.8408 34.625C19.8408 35.9367 24.2004 37 29.5783 37Z" fill="#FFBF0B"/>
</g>
<defs>
<filter id="filter0_f_2_749" x="0" y="0" width="74" height="74" filterUnits="userSpaceOnUse" color-interpolation-filters="sRGB">
<feFlood flood-opacity="0" result="BackgroundImageFix"/>
<feBlend mode="normal" in="SourceGraphic" in2="BackgroundImageFix" result="shape"/>
<feGaussianBlur stdDeviation="9" result="effect1_foregroundBlur_2_749"/>
</filter>
</defs>
</svg>
