<svg width="72" height="74" viewBox="0 0 72 74" fill="none" xmlns="http://www.w3.org/2000/svg">
<g opacity="0.2" clip-path="url(#clip0_0_58)" filter="url(#filter0_f_0_58)">
<path d="M28.4307 40.2421C26.1907 42.7839 27.2099 47.0625 30.4608 48.2113C31.3704 48.5323 32.7057 48.656 33.6504 48.4368C35.667 47.9689 37.0967 45.7448 37.1661 43.8029C37.3276 39.3983 31.5853 36.8741 28.5136 40.1503C28.4872 40.1785 28.458 40.2101 28.4307 40.2421Z" fill="#2F9BFF"/>
<path d="M30.9597 48.8052C31.9095 49.0188 32.9768 49.04 33.75 48.8606C36.0358 48.3287 37.5294 45.8299 37.6008 43.8162C37.7067 40.9089 35.4629 38.8704 33.1907 38.3594C31.3027 37.9347 29.4819 38.4788 28.1958 39.8499L28.1157 39.9382C26.9348 41.2788 26.5141 43.1315 26.9773 44.9101C27.4322 46.6546 28.6802 48.0415 30.3167 48.6204C30.5137 48.6908 30.7304 48.7536 30.9597 48.8052ZM33.0014 39.2102C34.9219 39.6421 36.8196 41.3538 36.732 43.7875C36.6709 45.4782 35.4401 47.5764 33.5531 48.0133C32.9009 48.1637 31.9823 48.1418 31.1529 47.9553C30.9561 47.911 30.7748 47.8602 30.6075 47.8005C29.2236 47.3125 28.2078 46.1786 27.8213 44.6924C27.4317 43.1934 27.782 41.6359 28.756 40.5279L28.8305 40.4463C29.9002 39.3057 31.421 38.8547 33.0014 39.2102V39.2102Z" fill="#2F2F2F"/>
<path d="M28.6443 36.7125C28.6443 36.7125 28.757 38.8178 30.3363 41.1063L27.5854 42.0094C27.5854 42.0094 26.4481 39.8985 25.9916 37.2241L28.6443 36.7125Z" fill="#2F2F2F"/>
<path d="M25.5319 30.5476L29.3688 24.9139C29.4127 24.8488 29.4709 24.7946 29.539 24.7554C29.6266 24.7048 31.8648 23.4476 35.3121 24.4377C37.8441 25.1678 39.2803 26.575 40.2474 27.72C41.123 28.7541 41.3312 29.1141 41.798 30.0021C42.0407 30.4582 42.1315 30.84 42.0864 31.2013C42.0448 31.5292 41.8604 31.9917 41.2161 32.3306L41.1682 32.356C40.7942 32.5549 40.3176 32.8171 39.6387 32.542C39.2299 32.3778 38.9196 31.8743 38.4521 31.0605C38.3178 30.8275 38.1909 30.6062 38.1039 30.4843C37.6244 29.8223 37.1258 29.138 35.7528 28.3875C35.5149 28.2577 34.6915 27.8396 34.036 27.6922C32.9334 27.4442 32.1475 27.4662 31.2202 27.9563C28.9896 29.135 28.7174 31.5411 28.8551 32.6783C28.8814 32.883 28.7821 33.0835 28.6055 33.1903C28.4874 33.2601 28.3505 33.2795 28.2225 33.2507C28.1575 33.2361 28.0936 33.2077 28.0342 33.1682L25.6588 31.2688C25.4272 31.1022 25.3688 30.7819 25.5319 30.5476Z" fill="#2F2F2F"/>
<path d="M46.6812 39.9441C46.8358 38.4531 46.1394 36.7204 45.2116 35.5882C44.0327 34.1527 40.9581 34.0674 39.1453 34.4868C40.2135 33.3077 42.0382 32.907 43.062 32.9165L43.1857 32.9202C43.4682 32.9315 43.7528 32.9694 44.028 33.0313C45.4631 33.3541 46.6901 34.3167 47.3904 35.6748C48.1122 37.0718 48.1648 38.6677 47.5389 40.1651C47.2088 40.9542 46.5242 41.8201 45.8154 42.3653C46.3319 41.6845 46.5907 40.8192 46.6812 39.9441Z" fill="#2F9BFF"/>
<path d="M27.5213 41.9287C26.1984 43.972 27.2676 47.0734 29.6089 47.6963C30.2645 47.8699 31.1949 47.8663 31.8267 47.637C33.1755 47.1474 33.9693 45.3946 33.8504 43.9504C33.582 40.6718 29.4068 39.2048 27.5727 41.8519C27.5567 41.8784 27.5392 41.9026 27.5213 41.9287Z" fill="#2F2F2F"/>
<path d="M40.224 33.8943C42.0597 33.4359 44.014 34.1284 45.2115 35.5882C46.1393 36.7204 46.8358 38.4531 46.6811 39.9441C46.5493 41.1993 46.0909 42.4434 44.9956 43.1266C44.1664 43.6447 43.1498 43.8176 42.1762 43.701C41.6877 43.6413 41.1792 43.5189 40.7323 43.31C39.5694 42.7674 38.5603 41.2917 38.0103 40.1662C37.9664 40.076 37.9263 39.9866 37.8889 39.8939C37.0261 37.7585 37.667 34.5338 40.224 33.8943ZM39.9695 38.543C40.044 39.0596 40.3227 39.6684 40.6282 40.0864C41.1524 40.8086 42.1713 41.2767 43.0185 40.8128C43.4881 40.555 43.7058 40.0599 43.7505 39.5399C43.778 39.239 43.7493 38.9293 43.681 38.653C43.5535 38.1485 43.1675 37.5618 42.8132 37.191C42.1329 36.4758 40.9818 36.247 40.326 37.1275C40.0695 37.4733 39.9081 38.1196 39.9695 38.543Z" fill="#2F2F2F"/>
<path d="M40.2097 32.8511C39.9002 32.3257 39.6755 32.1286 39.7025 31.9821C39.729 31.8375 40.0773 31.7171 40.1867 31.6413C40.3105 31.5547 40.4426 31.5122 40.5734 31.4392C40.7136 31.3603 40.856 31.2719 41.0053 31.2151C41.2116 31.137 41.3265 31.0364 41.5295 31.1784C41.7083 31.303 41.8044 31.4912 41.9077 31.6751C42.1378 32.0802 42.3211 32.5149 42.4929 32.947C42.5055 32.98 42.6973 33.511 42.5957 33.5162C42.5777 33.5162 42.6918 33.5981 42.1051 33.707C41.554 33.8099 40.7024 33.9095 40.6568 33.8711C40.5428 33.7712 40.4959 33.3371 40.2097 32.8511Z" fill="#2F2F2F"/>
<path d="M36.1278 48.4018C35.2408 48.9712 34.3105 49.2337 33.2336 49.2104C31.7846 49.1816 31.0088 48.8103 31.0088 48.8103C31.0088 48.8103 32.3805 48.1652 32.7164 48.1625C34.435 48.1535 35.0302 47.1852 35.5413 46.1177C35.995 45.1717 36.0832 43.6015 35.5697 42.2874C35.0749 41.0238 33.8384 39.3002 31.3982 39.2151C30.8603 39.1965 30.703 39.2354 30.703 39.2354C30.703 39.2354 29.132 38.6151 30.3675 37.9955C32.0336 37.1576 34.4656 37.3774 36.2445 38.9299C36.9748 39.5659 37.5795 40.5191 37.8983 41.1549C38.2823 41.9199 38.467 43.0535 38.4267 43.9559C38.322 46.4118 37.2188 47.7016 36.1278 48.4018Z" fill="#2F2F2F"/>
<path d="M30.2861 38.0374C30.2861 38.0374 29.3525 38.4659 28.963 39.4122L29.6223 39.5605L30.5494 38.8394L30.2861 38.0374Z" fill="#2F2F2F"/>
<path d="M25.1483 28.7991C26.794 25.6419 30.6257 23.3517 34.4343 24.2083C34.6101 24.2478 34.8577 24.3075 35.0587 24.3688C35.2171 24.4145 35.6951 24.5561 35.6951 24.5561C35.6951 24.5561 34.9662 24.3962 34.1684 24.4798C32.3857 24.667 31.2359 25.352 30.5129 26.3257C29.4604 27.7473 29.103 28.6848 28.8461 30.8354C28.7215 31.8895 28.961 33.69 29.1875 34.5841C29.2912 34.9889 29.3877 35.372 29.4323 35.7093C29.5111 36.2871 29.3259 37.0305 28.7356 37.3876C28.2452 37.6848 26.8097 37.9883 25.9593 38.1183C25.7823 38.1467 25.5915 38.138 25.4062 38.0963C24.9151 37.9858 24.5972 37.5871 24.4878 37.1629C23.8098 34.5451 23.764 31.455 25.1483 28.7991Z" fill="#2F9BFF"/>
</g>
<defs>
<filter id="filter0_f_0_58" x="-3.39066" y="-1.81535" width="78.0162" height="78.0162" filterUnits="userSpaceOnUse" color-interpolation-filters="sRGB">
<feFlood flood-opacity="0" result="BackgroundImageFix"/>
<feBlend mode="normal" in="SourceGraphic" in2="BackgroundImageFix" result="shape"/>
<feGaussianBlur stdDeviation="12" result="effect1_foregroundBlur_0_58"/>
</filter>
<clipPath id="clip0_0_58">
<rect width="25.0431" height="25.0431" fill="white" transform="matrix(-0.976731 -0.219683 -0.219683 0.976731 50.5984 27.7133)"/>
</clipPath>
</defs>
</svg>
