<svg width="17" height="21" viewBox="0 0 17 21" fill="none" xmlns="http://www.w3.org/2000/svg">
<path d="M8.34012 10.444C10.974 10.444 13.1092 8.27961 13.1092 5.60968C13.1092 2.93974 10.974 0.775336 8.34012 0.775336C5.70621 0.775336 3.57101 2.93974 3.57101 5.60968C3.57101 8.27961 5.70621 10.444 8.34012 10.444Z" stroke="#9DA8C3" stroke-width="1.5" stroke-linecap="round" stroke-linejoin="round"/>
<path fill-rule="evenodd" clip-rule="evenodd" d="M0.775352 17.1677C0.774064 16.8279 0.849044 16.4921 0.994622 16.186C1.45143 15.2599 2.73964 14.7691 3.80858 14.5468C4.5795 14.38 5.36106 14.2685 6.14745 14.2134C7.60336 14.0837 9.06772 14.0837 10.5237 14.2134C11.31 14.2693 12.0916 14.3807 12.8626 14.5468C13.9315 14.7691 15.2197 15.2136 15.6766 16.186C15.9693 16.81 15.9693 17.5346 15.6766 18.1587C15.2197 19.1311 13.9315 19.5756 12.8626 19.7886C12.0926 19.9623 11.3107 20.0768 10.5237 20.1312C9.33871 20.2331 8.14814 20.2516 6.96056 20.1869C6.68648 20.1869 6.42154 20.1869 6.14745 20.1312C5.36338 20.0775 4.58453 19.963 3.81771 19.7886C2.73964 19.5756 1.46057 19.1311 0.994622 18.1587C0.849793 17.849 0.774883 17.5104 0.775352 17.1677Z" stroke="#9DA8C3" stroke-width="1.5" stroke-linecap="round" stroke-linejoin="round"/>
</svg>
