<svg width="17" height="21" viewBox="0 0 17 21" fill="none" xmlns="http://www.w3.org/2000/svg">
<path d="M8.34014 10.4441C10.9741 10.4441 13.1093 8.27964 13.1093 5.60969C13.1093 2.93975 10.9741 0.775338 8.34014 0.775338C5.70623 0.775338 3.57102 2.93975 3.57102 5.60969C3.57102 8.27964 5.70623 10.4441 8.34014 10.4441Z" stroke="#9DA8C3" stroke-width="1.5" stroke-linecap="round" stroke-linejoin="round"/>
<path fill-rule="evenodd" clip-rule="evenodd" d="M0.775354 17.1677C0.774067 16.8278 0.849047 16.4921 0.994625 16.186C1.45143 15.2599 2.73965 14.7691 3.80859 14.5468C4.57951 14.38 5.36108 14.2685 6.14747 14.2134C7.60338 14.0837 9.06775 14.0837 10.5237 14.2134C11.3101 14.2692 12.0916 14.3806 12.8627 14.5468C13.9316 14.7691 15.2198 15.2135 15.6766 16.186C15.9694 16.81 15.9694 17.5346 15.6766 18.1586C15.2198 19.1311 13.9316 19.5756 12.8627 19.7886C12.0926 19.9623 11.3108 20.0768 10.5237 20.1312C9.33874 20.2331 8.14816 20.2516 6.96058 20.1869C6.6865 20.1869 6.42156 20.1869 6.14747 20.1312C5.36339 20.0775 4.58454 19.963 3.81772 19.7886C2.73965 19.5756 1.46057 19.1311 0.994625 18.1586C0.849795 17.8489 0.774885 17.5104 0.775354 17.1677Z" stroke="#9DA8C3" stroke-width="1.5" stroke-linecap="round" stroke-linejoin="round"/>
</svg>
