<svg width="19" height="19" viewBox="0 0 19 19" fill="none" xmlns="http://www.w3.org/2000/svg">
<g clip-path="url(#clip0_2_557)">
<path d="M13.9436 9.2835C15.0935 7.71444 15.6085 5.76908 15.3856 3.83661C15.1627 1.90414 14.2184 0.127087 12.7416 -1.13904C11.2648 -2.40516 9.36432 -3.06697 7.42049 -2.99207C5.47666 -2.91717 3.63278 -2.11109 2.25775 -0.735075C0.882728 0.640935 0.077958 2.48539 0.00444964 4.42928C-0.0690588 6.37316 0.594115 8.27312 1.86129 9.74905C3.12847 11.225 4.90621 12.168 6.83883 12.3895C8.77146 12.611 10.7164 12.0946 12.2847 10.9436H12.2835C12.3191 10.9911 12.3571 11.0362 12.3999 11.0802L16.9717 15.6521C17.1944 15.8749 17.4965 16.0001 17.8115 16.0002C18.1265 16.0003 18.4286 15.8753 18.6515 15.6527C18.8743 15.43 18.9995 15.1279 18.9996 14.8129C18.9998 14.4979 18.8747 14.1958 18.6521 13.9729L14.0802 9.40106C14.0377 9.35808 13.9921 9.31839 13.9436 9.28231V9.2835ZM14.25 4.71875C14.25 5.57644 14.0811 6.42574 13.7528 7.21815C13.4246 8.01056 12.9435 8.73056 12.337 9.33704C11.7306 9.94352 11.0106 10.4246 10.2181 10.7528C9.42574 11.0811 8.57644 11.25 7.71875 11.25C6.86105 11.25 6.01175 11.0811 5.21935 10.7528C4.42694 10.4246 3.70694 9.94352 3.10046 9.33704C2.49397 8.73056 2.01289 8.01056 1.68466 7.21815C1.35643 6.42574 1.1875 5.57644 1.1875 4.71875C1.1875 2.98655 1.87561 1.3253 3.10046 0.100456C4.3253 -1.12439 5.98655 -1.8125 7.71875 -1.8125C9.45094 -1.8125 11.1122 -1.12439 12.337 0.100456C13.5619 1.3253 14.25 2.98655 14.25 4.71875Z" fill="black"/>
</g>
<defs>
<clipPath id="clip0_2_557">
<rect width="19" height="19" fill="white"/>
</clipPath>
</defs>
</svg>
